<svg width="138" height="57" viewBox="0 0 138 57" fill="none" xmlns="http://www.w3.org/2000/svg">
<g filter="url(#filter0_d_23_2)">
<path fill-rule="evenodd" clip-rule="evenodd" d="M28.5 45C38.165 45 46 37.165 46 27.5C46 17.835 38.165 10 28.5 10C18.835 10 11 17.835 11 27.5C11 37.165 18.835 45 28.5 45Z" fill="#BAD332"/>
</g>
<path d="M37.7475 21.5288C38.1229 22.1791 37.293 23.6028 36.8968 24.2155C36.7715 24.4092 36.5981 24.5649 36.3983 24.6803L32.694 26.819L33.2173 37.4166C33.2291 37.656 33.1077 37.8824 32.9022 38.0056L32.3384 38.3436C32.1738 38.4421 31.974 38.4629 31.7927 38.4004L31.396 38.264C31.2374 38.2093 31.1059 38.095 31.0295 37.9457L27.0175 30.0963L23.0172 32.4059L22.6112 35.1617C22.5663 35.4675 22.3007 35.692 21.9917 35.6863C21.7535 35.6818 21.5392 35.54 21.4422 35.3224L20.3713 32.9187C19.5984 32.9434 18.8726 32.8679 18.678 32.5307C18.4836 32.1938 18.7813 31.5304 19.1899 30.8764L17.6561 28.7646C17.5161 28.5718 17.5005 28.3154 17.6157 28.1069C17.7653 27.8364 18.0925 27.7187 18.3798 27.8326L20.951 28.8526L24.9598 26.5381L20.2009 19.1899C20.1097 19.0492 20.0766 18.878 20.1084 18.7134L20.1882 18.3008C20.2247 18.1127 20.3427 17.9498 20.5102 17.8566L21.0848 17.5373C21.2942 17.4209 21.551 17.4291 21.7524 17.5589L30.6118 23.2749L34.3423 21.1211C34.5423 21.0056 34.7647 20.9338 34.9954 20.9222C35.7243 20.8857 37.3718 20.8788 37.7475 21.5288Z" fill="white"/>
<mask id="mask0_23_2" style="mask-type:luminance" maskUnits="userSpaceOnUse" x="17" y="17" width="21" height="22">
<path d="M37.7475 21.5288C38.1229 22.1791 37.293 23.6028 36.8968 24.2155C36.7715 24.4092 36.5981 24.5649 36.3983 24.6803L32.694 26.819L33.2173 37.4166C33.2291 37.656 33.1077 37.8824 32.9022 38.0056L32.3384 38.3436C32.1738 38.4421 31.974 38.4629 31.7927 38.4004L31.396 38.264C31.2374 38.2093 31.1059 38.095 31.0295 37.9457L27.0175 30.0963L23.0172 32.4059L22.6112 35.1617C22.5663 35.4675 22.3007 35.692 21.9917 35.6863C21.7535 35.6818 21.5392 35.54 21.4422 35.3224L20.3713 32.9187C19.5984 32.9434 18.8726 32.8679 18.678 32.5307C18.4836 32.1938 18.7813 31.5304 19.1899 30.8764L17.6561 28.7646C17.5161 28.5718 17.5005 28.3154 17.6157 28.1069C17.7653 27.8364 18.0925 27.7187 18.3798 27.8326L20.951 28.8526L24.9598 26.5381L20.2009 19.1899C20.1097 19.0492 20.0766 18.878 20.1084 18.7134L20.1882 18.3008C20.2247 18.1127 20.3427 17.9498 20.5102 17.8566L21.0848 17.5373C21.2942 17.4209 21.551 17.4291 21.7524 17.5589L30.6118 23.2749L34.3423 21.1211C34.5423 21.0056 34.7647 20.9338 34.9954 20.9222C35.7243 20.8857 37.3718 20.8788 37.7475 21.5288Z" fill="white"/>
</mask>
<g mask="url(#mask0_23_2)">
<rect x="30.9009" y="22.1591" width="0.822026" height="7.79499" transform="rotate(60 30.9009 22.1591)" fill="#EBECF2"/>
<path fill-rule="evenodd" clip-rule="evenodd" d="M32.9021 38.006C33.1078 37.8828 33.2288 37.6563 33.217 37.4169L32.6767 26.4677L26.8743 29.8177L31.0296 37.9454C31.106 38.0947 31.2372 38.2088 31.3958 38.2635L31.7924 38.4005C31.9737 38.4631 32.1734 38.4424 32.338 38.3438L32.9021 38.006Z" fill="#DEE1E3"/>
<path opacity="0.4" d="M16.6107 34.1616C16.5657 34.4675 16.3002 34.6921 15.9911 34.6862C15.7529 34.6817 15.5387 34.54 15.4417 34.3224L14.3541 31.882L14.4124 31.8483C15.1753 31.7866 15.9794 31.6281 16.3708 31.5431C16.5325 31.5079 16.6861 31.4456 16.8295 31.3628L17.04 31.2412L16.6107 34.1616Z" fill="#DEE1E3"/>
<path d="M32.7487 27.9191L28.0234 32.0647L26.9512 29.9673L32.686 26.6562L32.7487 27.9191Z" fill="#C5C6CC"/>
<path fill-rule="evenodd" clip-rule="evenodd" d="M38.4057 23.5214L19.6909 34.3264C19.6909 34.3264 19.1387 33.3284 18.6782 32.5308C18.6726 32.5211 18.6673 32.5114 18.6624 32.5015C19.5114 32.5629 21.2209 32.4938 22.8789 31.5366L35.8353 24.0562C37.2749 23.2251 37.6275 22.1488 37.8217 21.6861C38.1223 22.4934 38.4057 23.5214 38.4057 23.5214Z" fill="#DEE1E3"/>
</g>
<path d="M54.0913 35H51.3228V20.0088H58.0391V22.4185H54.0913V26.5815H57.7725V28.9912H54.0913V35ZM62.479 35H59.7515V19.0449H62.479V35ZM70.9487 35L70.6104 33.5337H70.4668C70.2139 34.0532 69.8516 34.4634 69.3799 34.7642C68.915 35.0581 68.3818 35.2051 67.7803 35.2051C66.7549 35.2051 65.979 34.8564 65.4526 34.1592C64.9263 33.4619 64.6631 32.4194 64.6631 31.0317V23.5771H67.4214V30.3755C67.4214 31.2095 67.5205 31.8384 67.7188 32.2622C67.917 32.686 68.2383 32.8979 68.6826 32.8979C69.2705 32.8979 69.6978 32.604 69.9644 32.0161C70.2378 31.4282 70.3745 30.4404 70.3745 29.0527V23.5771H73.1328V35H70.9487ZM83.6431 23.5977V25.1973L82.2793 25.5049C82.5459 25.9834 82.6792 26.585 82.6792 27.3096C82.6792 28.5195 82.3511 29.4663 81.6948 30.1499C81.0386 30.8335 80.1226 31.1753 78.9468 31.1753C78.605 31.1753 78.3521 31.1479 78.188 31.0933C78.0581 31.2095 77.9351 31.3394 77.8188 31.4829C77.7026 31.6265 77.6445 31.8042 77.6445 32.0161C77.6445 32.4946 78.0581 32.7339 78.8853 32.7339H80.5361C81.5068 32.7339 82.252 32.9971 82.7715 33.5234C83.2979 34.043 83.561 34.8291 83.561 35.8818C83.561 37.208 83.1167 38.2334 82.228 38.958C81.3394 39.6826 80.061 40.0449 78.3931 40.0449C77.1284 40.0449 76.1543 39.7681 75.4707 39.2144C74.7871 38.6675 74.4453 37.8848 74.4453 36.8662C74.4453 36.2305 74.6401 35.6699 75.0298 35.1846C75.4194 34.7061 75.9595 34.3574 76.6499 34.1387C76.3013 34.002 76.0142 33.79 75.7886 33.5029C75.5698 33.2158 75.4604 32.8809 75.4604 32.498C75.4604 32.2656 75.4946 32.0571 75.563 31.8726C75.6313 31.6812 75.7271 31.5034 75.8501 31.3394C75.98 31.1685 76.2397 30.9189 76.6294 30.5908C76.1577 30.3037 75.7852 29.8628 75.5117 29.2681C75.2383 28.6733 75.1016 28.0137 75.1016 27.2891C75.1016 26.0381 75.4297 25.0708 76.0859 24.3872C76.7422 23.7036 77.6821 23.3618 78.9058 23.3618C79.1382 23.3618 79.4048 23.3892 79.7056 23.4438C80.0063 23.4917 80.2354 23.543 80.3926 23.5977H83.6431ZM76.9268 36.6611C76.9268 37.1123 77.0669 37.4575 77.3472 37.6968C77.6343 37.9429 78.041 38.0659 78.5674 38.0659C79.3945 38.0659 80.0132 37.9087 80.4233 37.5942C80.8403 37.2798 81.0488 36.8491 81.0488 36.3022C81.0488 35.8716 80.936 35.5674 80.7104 35.3896C80.4917 35.2119 80.0781 35.123 79.4697 35.123H78.147C77.7778 35.123 77.4805 35.2598 77.2549 35.5332C77.0361 35.8135 76.9268 36.1895 76.9268 36.6611ZM77.7676 27.3096C77.7676 28.6562 78.147 29.3296 78.9058 29.3296C79.644 29.3296 80.0132 28.6494 80.0132 27.2891C80.0132 25.8945 79.644 25.1973 78.9058 25.1973C78.147 25.1973 77.7676 25.9014 77.7676 27.3096ZM91.1489 31.6572C91.1489 32.7715 90.8208 33.6431 90.1646 34.272C89.5151 34.894 88.5547 35.2051 87.2832 35.2051C86.1553 35.2051 85.2222 34.9829 84.4839 34.5386V32.1699C84.8599 32.4297 85.2974 32.645 85.7964 32.8159C86.3022 32.9868 86.7466 33.0723 87.1294 33.0723C87.5532 33.0723 87.8745 32.9697 88.0933 32.7646C88.3188 32.5527 88.4316 32.2759 88.4316 31.9341C88.4316 31.5854 88.3154 31.2812 88.083 31.0215C87.8506 30.7617 87.4233 30.4438 86.8013 30.0679C85.9741 29.5757 85.3794 29.0527 85.0171 28.499C84.6616 27.9385 84.4839 27.2788 84.4839 26.52C84.4839 25.5493 84.8154 24.7803 85.4785 24.2129C86.1484 23.6455 87.0645 23.3618 88.2266 23.3618C89.2383 23.3618 90.1919 23.6284 91.0874 24.1616L90.1953 26.1201C89.4639 25.7236 88.8213 25.5254 88.2676 25.5254C87.9189 25.5254 87.6558 25.6177 87.478 25.8022C87.3071 25.9868 87.2217 26.2124 87.2217 26.479C87.2217 26.7866 87.3276 27.0601 87.5396 27.2993C87.7583 27.5386 88.1616 27.8359 88.7495 28.1914C89.4604 28.6221 89.9595 28.9878 90.2466 29.2886C90.5337 29.5894 90.7559 29.9312 90.9131 30.314C91.0703 30.6968 91.1489 31.1445 91.1489 31.6572ZM99.0444 35L98.7061 33.5337H98.5625C98.3096 34.0532 97.9473 34.4634 97.4756 34.7642C97.0107 35.0581 96.4775 35.2051 95.876 35.2051C94.8506 35.2051 94.0747 34.8564 93.5483 34.1592C93.022 33.4619 92.7588 32.4194 92.7588 31.0317V23.5771H95.5171V30.3755C95.5171 31.2095 95.6162 31.8384 95.8145 32.2622C96.0127 32.686 96.334 32.8979 96.7783 32.8979C97.3662 32.8979 97.7935 32.604 98.0601 32.0161C98.3335 31.4282 98.4702 30.4404 98.4702 29.0527V23.5771H101.229V35H99.0444ZM107.289 35.2051C105.928 35.2051 104.893 34.7095 104.182 33.7183C103.471 32.7271 103.115 31.271 103.115 29.3501C103.115 27.3403 103.45 25.8398 104.12 24.8486C104.797 23.8574 105.839 23.3618 107.248 23.3618C107.671 23.3618 108.116 23.4233 108.581 23.5464C109.045 23.6694 109.462 23.8472 109.832 24.0796L109.052 26.2021C108.485 25.8672 107.982 25.6997 107.545 25.6997C106.964 25.6997 106.543 26.0039 106.284 26.6123C106.031 27.2139 105.904 28.1196 105.904 29.3296C105.904 30.5122 106.031 31.3975 106.284 31.9854C106.537 32.5664 106.95 32.8569 107.524 32.8569C108.208 32.8569 108.922 32.6177 109.667 32.1392V34.5386C108.95 34.9829 108.157 35.2051 107.289 35.2051ZM116.999 35V28.1914C116.999 26.5166 116.579 25.6792 115.738 25.6792C115.109 25.6792 114.668 26.0107 114.415 26.6738C114.162 27.3301 114.036 28.2769 114.036 29.5142V35H111.308V19.0449H114.036V22.5928C114.036 23.0508 113.995 23.8677 113.913 25.0435H114.056C114.603 23.9224 115.444 23.3618 116.579 23.3618C117.625 23.3618 118.414 23.7173 118.947 24.4282C119.48 25.1323 119.747 26.1714 119.747 27.5454V35H116.999ZM126.166 35.2051C124.737 35.2051 123.609 34.6992 122.782 33.6875C121.962 32.6689 121.552 31.23 121.552 29.3706C121.552 27.4839 121.924 26.0107 122.669 24.9512C123.415 23.8916 124.454 23.3618 125.787 23.3618C127.031 23.3618 128.012 23.8164 128.729 24.7256C129.447 25.6279 129.806 26.896 129.806 28.5298V29.9858H124.32C124.341 31.0044 124.549 31.7632 124.946 32.2622C125.342 32.7544 125.889 33.0005 126.586 33.0005C127.475 33.0005 128.384 32.7236 129.314 32.1699V34.4155C128.439 34.9419 127.39 35.2051 126.166 35.2051ZM125.766 25.4639C125.376 25.4639 125.055 25.6724 124.802 26.0894C124.549 26.4995 124.402 27.1387 124.361 28.0068H127.13C127.116 27.1729 126.99 26.5405 126.75 26.1099C126.511 25.6792 126.183 25.4639 125.766 25.4639Z" fill="#72777A"/>
<defs>
<filter id="filter0_d_23_2" x="0" y="0" width="57" height="57" filterUnits="userSpaceOnUse" color-interpolation-filters="sRGB">
<feFlood flood-opacity="0" result="BackgroundImageFix"/>
<feColorMatrix in="SourceAlpha" type="matrix" values="0 0 0 0 0 0 0 0 0 0 0 0 0 0 0 0 0 0 127 0" result="hardAlpha"/>
<feOffset dy="1"/>
<feGaussianBlur stdDeviation="5.5"/>
<feColorMatrix type="matrix" values="0 0 0 0 0.215686 0 0 0 0 0.407843 0 0 0 0 0.556863 0 0 0 0.3 0"/>
<feBlend mode="normal" in2="BackgroundImageFix" result="effect1_dropShadow_23_2"/>
<feBlend mode="normal" in="SourceGraphic" in2="effect1_dropShadow_23_2" result="shape"/>
</filter>
</defs>
</svg>
